<svg xmlns="http://www.w3.org/2000/svg" fill-rule="evenodd" viewBox="0 0 100 100">
    <path d="M50.379 26.224c-13.319 0-24.154 10.834-24.154 24.151 0 13.319 10.835 24.155 24.154 24.155 13.321 0 24.159-10.836 24.159-24.155 0-13.317-10.837-24.151-24.159-24.151zm21.099 24.151c0 11.632-9.465 21.095-21.099 21.095-11.632 0-21.095-9.463-21.095-21.095 0-11.63 9.463-21.091 21.095-21.091 11.634 0 21.099 9.461 21.099 21.091z"/>
    <path d="M50.379 0C22.6 0 0 22.602 0 50.383c0 27.775 22.6 50.371 50.379 50.371 27.774 0 50.371-22.596 50.371-50.371C100.75 22.602 78.154 0 50.379 0zM97.69 50.383c0 26.087-21.224 47.311-47.311 47.311-26.092 0-47.319-21.224-47.319-47.311C3.06 24.289 24.288 3.06 50.379 3.06c26.088 0 47.311 21.229 47.311 47.323z"/>
</svg>
