<?xml version="1.0" encoding="UTF-8"?> <!-- Generator: Adobe Illustrator 21.0.0, SVG Export Plug-In . SVG Version: 6.00 Build 0) --> <svg xmlns="http://www.w3.org/2000/svg" xmlns:xlink="http://www.w3.org/1999/xlink" id="Layer_1" x="0px" y="0px" viewBox="0 0 100.75 100.754" style="enable-background:new 0 0 100.75 100.754;" xml:space="preserve"> <g> <path style="fill:#1A1A1A;" d="M50.379,26.224c-13.319,0-24.154,10.834-24.154,24.151c0,13.319,10.835,24.155,24.154,24.155 c13.321,0,24.159-10.836,24.159-24.155C74.538,37.058,63.701,26.224,50.379,26.224z M71.478,50.375 c0,11.632-9.465,21.095-21.099,21.095c-11.632,0-21.095-9.463-21.095-21.095c0-11.63,9.463-21.091,21.095-21.091 C62.013,29.284,71.478,38.745,71.478,50.375z"></path> <path style="fill:#1A1A1A;" d="M50.379,0C22.6,0,0,22.602,0,50.383c0,27.775,22.6,50.371,50.379,50.371 c27.774,0,50.371-22.596,50.371-50.371C100.75,22.602,78.154,0,50.379,0z M97.69,50.383c0,26.087-21.224,47.311-47.311,47.311 C24.287,97.694,3.06,76.47,3.06,50.383C3.06,24.289,24.288,3.06,50.379,3.06C76.467,3.06,97.69,24.289,97.69,50.383z"></path> </g> </svg> 